<svg width="185" height="81" viewBox="0 0 185 81" fill="none" xmlns="http://www.w3.org/2000/svg">
<g clip-path="url(#clip0_65_95)">
<path d="M158.94 25.9003C158.96 25.7603 159.04 25.6103 159.18 25.4803C167.24 17.5303 185.04 5.72026 184.49 12.8303C183.97 19.5803 165.56 25.0603 159.75 26.5003C159.23 26.6303 158.88 26.3703 158.95 25.9103L158.94 25.9003Z" fill="#F1BCB5"/>
<path d="M158.29 25.8702C158.18 25.6902 158.16 25.4702 158.22 25.2702C162.18 13.0302 176.49 -6.76982 182.54 2.31018C188.29 10.9402 167.01 22.9602 160.02 26.3902C159.39 26.7002 158.64 26.4702 158.29 25.8702Z" fill="#F15D5D"/>
<path d="M20.4404 80.5905V72.8005H17.6904V71.4805H24.4904V72.8005H21.7504V80.5905H20.4404Z" fill="#231F20"/>
<path d="M31.07 79.2405H35.29V80.5505H29.75V71.4805H35.27V72.7905H31.07V75.3405H35.18V76.6605H31.07V79.2305V79.2405Z" fill="#231F20"/>
<path d="M41.7004 72.7797C42.4904 71.9597 43.6104 71.4297 44.8404 71.4297C46.9204 71.4297 48.5504 72.7297 49.0704 74.7797H47.7704C47.2904 73.4197 46.1704 72.7297 44.8404 72.7297C43.9704 72.7297 43.1804 73.1097 42.6104 73.6997C42.0404 74.2997 41.6804 75.0997 41.6804 76.0297C41.6804 76.9597 42.0404 77.7397 42.6104 78.3397C43.1804 78.9397 43.9704 79.3097 44.8404 79.3097C46.2204 79.3097 47.3804 78.5197 47.8504 77.1397H49.1304C48.6104 79.1997 46.9504 80.5997 44.8404 80.5997C43.6104 80.5997 42.4904 80.0797 41.7004 79.2497C40.9204 78.4197 40.4004 77.2797 40.4004 76.0197C40.4004 74.7597 40.9204 73.5897 41.7004 72.7597V72.7797Z" fill="#231F20"/>
<path d="M55.7905 75.3105H59.6305V71.4805H60.9505V80.5505H59.6305V76.6105H55.7905V80.5505H54.4805V71.4805H55.7905V75.3105Z" fill="#231F20"/>
<path d="M66.5098 80.55V71.46H67.5198L71.9398 77.87V71.48H73.2398V80.56H72.1998L67.8198 74.22V80.56H66.5098V80.55Z" fill="#231F20"/>
<path d="M79.8305 72.7296C80.6605 71.8896 81.8305 71.3496 83.1005 71.3496C84.3705 71.3496 85.5405 71.8796 86.3805 72.7296C87.2005 73.5696 87.7305 74.7296 87.7305 76.0096C87.7305 77.2896 87.2005 78.4496 86.3805 79.2896C85.5405 80.1496 84.3805 80.6696 83.1005 80.6696C81.8205 80.6696 80.6605 80.1496 79.8305 79.2896C79.0105 78.4496 78.4805 77.2896 78.4805 76.0096C78.4805 74.7296 79.0105 73.5696 79.8305 72.7296ZM85.4405 73.6596C84.8305 73.0496 83.9905 72.6696 83.0905 72.6696C82.1905 72.6696 81.3605 73.0496 80.7705 73.6596C80.1705 74.2596 79.8005 75.0896 79.8005 76.0096C79.8005 76.9296 80.1805 77.7596 80.7705 78.3596C81.3705 78.9696 82.2005 79.3496 83.0905 79.3496C83.9805 79.3496 84.8305 78.9696 85.4405 78.3596C86.0205 77.7596 86.4005 76.9496 86.4005 76.0096C86.4005 75.0696 86.0205 74.2596 85.4405 73.6596Z" fill="#231F20"/>
<path d="M94.6303 79.2405H98.9003V80.5505H93.3203V71.4805H94.6303V79.2405Z" fill="#231F20"/>
<path d="M104.74 72.7296C105.57 71.8896 106.74 71.3496 108.01 71.3496C109.28 71.3496 110.45 71.8796 111.29 72.7296C112.11 73.5696 112.64 74.7296 112.64 76.0096C112.64 77.2896 112.11 78.4496 111.29 79.2896C110.45 80.1496 109.29 80.6696 108.01 80.6696C106.73 80.6696 105.57 80.1496 104.74 79.2896C103.92 78.4496 103.39 77.2896 103.39 76.0096C103.39 74.7296 103.92 73.5696 104.74 72.7296ZM110.35 73.6596C109.74 73.0496 108.9 72.6696 108 72.6696C107.1 72.6696 106.27 73.0496 105.68 73.6596C105.08 74.2596 104.71 75.0896 104.71 76.0096C104.71 76.9296 105.09 77.7596 105.68 78.3596C106.28 78.9696 107.11 79.3496 108 79.3496C108.89 79.3496 109.74 78.9696 110.35 78.3596C110.93 77.7596 111.31 76.9496 111.31 76.0096C111.31 75.0696 110.93 74.2596 110.35 73.6596Z" fill="#231F20"/>
<path d="M125.37 74.7299C125.01 73.2599 123.61 72.7299 122.45 72.7299C120.67 72.7299 119.3 74.1199 119.3 76.0199C119.3 77.9199 120.68 79.3499 122.45 79.3499C123.57 79.3499 124.76 78.8299 125.3 77.5099H121.94V76.1999H126.83C126.77 76.9699 126.7 77.4699 126.58 77.7699C125.96 79.4899 124.09 80.6099 122.44 80.6099C119.9 80.6099 117.98 78.6899 117.98 76.0199C117.98 73.3499 119.94 71.4199 122.44 71.4199C124.18 71.4199 126.28 72.3199 126.76 74.7299H125.36H125.37Z" fill="#231F20"/>
<path d="M136.41 72.7805H134.72V79.2405H136.41V80.5505H131.73V79.2405H133.42V72.7805H131.73V71.4805H136.41V72.7805Z" fill="#231F20"/>
<path d="M142.98 79.2405H147.2V80.5505H141.66V71.4805H147.18V72.7905H142.98V75.3405H147.09V76.6605H142.98V79.2305V79.2405Z" fill="#231F20"/>
<path d="M157.44 73.8204C157.26 73.0004 156.38 72.6503 155.59 72.6703C154.98 72.6803 154.31 72.8904 153.94 73.3604C153.76 73.5904 153.69 73.8903 153.72 74.2003C153.78 75.1303 154.81 75.2503 155.78 75.3403C157.03 75.5003 158.57 75.8203 158.92 77.2703C158.96 77.4603 158.98 77.6904 158.98 77.8704C158.98 79.6204 157.24 80.6303 155.61 80.6303C154.21 80.6303 152.51 79.8004 152.34 78.1804V77.9304L153.65 77.9004V78.0903L153.66 78.0404C153.75 78.8804 154.78 79.3204 155.62 79.3204C156.59 79.3204 157.66 78.7803 157.66 77.8403C157.66 77.7503 157.65 77.6503 157.62 77.5303C157.46 76.8403 156.53 76.7303 155.62 76.6303C154.21 76.4903 152.55 76.1803 152.4 74.2803C152.35 73.6803 152.5 73.0704 152.89 72.5704C153.5 71.7804 154.59 71.3604 155.64 71.3604C157.04 71.3604 158.49 72.0904 158.73 73.7504L157.43 73.8004L157.44 73.8204Z" fill="#231F20"/>
<path d="M40.05 20.1498V22.4698C40.05 23.0098 39.83 23.3298 39.29 23.4398L36.59 24.0898L22.39 58.8498H17.69L3.56 24.0898C2.05 23.7698 1.13 23.5498 0.81 23.4398C0.27 23.3298 0 23.0098 0 22.4698V20.0898H12.85V22.4698C12.85 23.0098 12.47 23.3898 11.77 23.4998C11.07 23.6098 10.15 23.8798 8.96 24.0898L18.84 48.6498C19.22 49.5098 19.65 50.9198 20.14 52.8598C20.57 51.0198 20.95 49.5698 21.38 48.5998L31.15 24.0398C29.42 23.7198 28.4 23.4998 28.07 23.3898C27.53 23.2798 27.26 22.8998 27.26 22.3598V20.0898L40.05 20.1398V20.1498Z" fill="#231F20"/>
<path d="M54.8997 31C56.5197 31 58.0296 31.27 59.4296 31.81C60.8296 32.35 62.0197 33.11 62.9897 34.13C63.9597 35.16 64.8296 36.45 65.3596 37.96C65.8997 39.47 66.2197 41.2 66.2197 43.14C66.2197 43.9 66.1696 44.44 65.9996 44.65C65.8296 44.86 65.4596 45.03 65.0296 45.03H46.8896C46.8896 46.76 47.1097 48.27 47.5396 49.56C47.9696 50.86 48.6196 51.83 49.3797 52.69C50.1397 53.55 50.9997 54.2 52.0797 54.63C53.1597 55.06 54.2396 55.28 55.5296 55.28C56.7196 55.28 57.7996 55.17 58.6596 54.9C59.5196 54.63 60.2796 54.31 60.9296 53.98C61.5796 53.66 62.1196 53.39 62.5496 53.12C62.9796 52.85 63.3097 52.69 63.6297 52.69C64.0597 52.69 64.3297 52.85 64.5497 53.18L65.8997 54.96C65.3097 55.72 64.5997 56.26 63.7397 56.8C62.8797 57.34 62.0696 57.83 61.0896 58.15C60.1196 58.47 59.1496 58.74 58.1796 58.91C57.2096 59.07 56.1796 59.18 55.2096 59.18C53.3196 59.18 51.5897 58.86 49.9697 58.21C48.3497 57.56 46.9997 56.59 45.8097 55.35C44.6197 54.11 43.7596 52.6 43.1096 50.76C42.4596 48.92 42.1396 46.87 42.1396 44.5C42.1396 42.56 42.4597 40.83 43.0597 39.21C43.6497 37.59 44.5196 36.08 45.5996 34.89C46.6796 33.7 48.0297 32.73 49.6497 32.03C51.2697 31.33 53.0497 31 54.9897 31H54.8797H54.8997ZM55.0597 34.51C52.7397 34.51 50.8996 35.16 49.6096 36.51C48.3096 37.86 47.4497 39.75 47.1297 42.12H61.9697C61.9697 41.04 61.8096 40.02 61.4796 39.1C61.1596 38.18 60.7796 37.32 60.1796 36.67C59.5896 36.02 58.8297 35.48 57.9697 35.1C57.1097 34.72 56.0796 34.56 54.9996 34.56L55.0496 34.51H55.0597Z" fill="#231F20"/>
<path d="M77.8397 35.2698C80.1097 32.4598 82.6997 31.0098 85.5597 31.0098C87.3997 31.0098 88.9597 31.5498 90.0897 32.5798C91.2197 33.6098 92.0297 35.0098 92.5697 36.7398C93.3297 34.8498 94.4597 33.3898 96.1297 32.4198C97.6397 31.5598 99.2097 31.0198 100.88 31.0198C102.55 31.0198 103.96 31.2898 105.09 31.7198C106.22 32.1498 107.25 32.8498 108 33.7198C109.62 35.5598 110.37 38.0898 110.37 41.3898V54.8798C112.1 55.1998 113.18 55.4198 113.5 55.5298C114.04 55.6398 114.31 55.9598 114.31 56.4998V58.8698H105.62V41.4298C105.62 39.2698 105.19 37.6498 104.22 36.5698C103.25 35.4898 101.9 34.8998 100.12 34.8998C98.4997 34.8998 97.0997 35.4398 96.0197 36.5198C94.8297 37.7098 94.2397 39.3298 94.2397 41.3798V54.8698C94.5597 54.9198 95.5897 55.1898 97.3197 55.5198C97.8597 55.6298 98.1297 55.9498 98.1297 56.4898V58.8098H89.4397V41.3698C89.4397 37.0498 87.7097 34.8898 84.2597 34.8898C81.9897 34.8898 79.9997 36.0798 78.1597 38.4498V54.8598L79.6197 55.1298C80.5897 55.3498 81.1297 55.4498 81.2397 55.4498C81.7797 55.5598 82.0497 55.9398 82.0497 56.4798V58.7498H69.4697V56.4798C69.4697 55.9398 69.6897 55.5598 70.2297 55.4498L73.3597 54.8598V35.3698C71.6297 35.0498 70.5497 34.8298 70.2297 34.7198C69.6897 34.6098 69.4697 34.2298 69.4697 33.6898V31.4198H73.3597H76.1697C76.8197 31.4198 77.2497 31.7398 77.4697 32.3898L77.8497 35.1998V35.2498L77.8397 35.2698Z" fill="#231F20"/>
<path d="M143.42 44.9295V45.0895C143.42 47.3595 143.1 49.3495 142.45 51.0795C141.8 52.8095 140.94 54.3195 139.86 55.5095C138.78 56.6995 137.54 57.5595 136.08 58.2095C134.62 58.8595 133.06 59.1795 131.33 59.1795C126.47 59.1795 119.24 57.6695 119.24 57.6695V22.9095C118.59 22.7995 116.22 22.4795 115.79 22.3695C115.3 22.2595 114.98 21.8295 114.98 21.3395V19.0195H119.24H119.4H124.1V35.3795C125.23 34.0795 126.53 33.0095 127.99 32.1995C129.45 31.3895 131.07 31.0095 132.96 31.0095C134.58 31.0095 135.98 31.2795 137.28 31.8695C138.58 32.4595 139.65 33.3795 140.52 34.5695C141.38 35.7595 142.09 37.1595 142.57 38.8895C143.06 40.6195 143.33 42.6695 143.33 44.9395H143.44L143.42 44.9295ZM136.35 52.5995C137 51.7395 137.54 50.6595 137.92 49.3595C138.24 48.1695 138.46 46.7695 138.46 45.2595V44.8295C138.46 43.0495 138.35 41.5895 138.03 40.2995C137.71 38.9995 137.22 37.9795 136.63 37.1695C136.04 36.3595 135.33 35.7095 134.47 35.3295C133.61 34.9495 132.58 34.7895 131.5 34.7895C129.93 34.7895 128.53 35.1095 127.34 35.8695C126.15 36.6295 125.07 37.6495 124.1 38.9495V45.3695V52.1695V54.5395C124.8 54.7595 127.12 55.2995 129.5 55.3995H130.9C131.98 55.3495 132.95 55.1795 133.82 54.7495C134.79 54.3195 135.66 53.5595 136.3 52.6995L136.35 52.5895V52.5995Z" fill="#231F20"/>
<path d="M158.8 56.4297V58.7497H146.22V56.4297C146.22 55.9397 146.54 55.5097 147.03 55.3997C147.52 55.2897 150.16 54.8097 150.16 54.8097V35.3197C150.16 35.3197 147.52 34.8297 147.03 34.7297C146.54 34.6197 146.22 34.1897 146.22 33.6997V31.4297H154.91V54.7997C154.91 54.7997 157.5 55.2897 157.99 55.3897C158.48 55.4997 158.8 55.9297 158.8 56.4197V56.4297Z" fill="#231F20"/>
<path d="M149.41 24.1498C149.19 23.7198 149.14 23.2898 149.14 22.8498C149.14 22.4098 149.19 21.9298 149.41 21.4998C149.63 21.0698 149.84 20.6898 150.17 20.3698C150.49 20.0498 150.82 19.8298 151.25 19.6098C151.68 19.3898 152.11 19.3398 152.55 19.3398C152.99 19.3398 153.41 19.3898 153.85 19.6098C154.29 19.8298 154.61 20.0398 154.93 20.3698C155.25 20.6998 155.47 21.0698 155.69 21.4998C155.91 21.9298 156.01 22.4198 156.01 22.8498C156.01 23.2798 155.9 23.7098 155.69 24.1498C155.47 24.5798 155.26 24.9098 154.93 25.2298C154.61 25.5498 154.28 25.7698 153.85 25.9898C153.42 26.2098 152.99 26.2598 152.55 26.2598C152.11 26.2598 151.69 26.2098 151.25 25.9898C150.82 25.7698 150.49 25.5598 150.17 25.2298C149.85 24.9098 149.63 24.5798 149.41 24.1498Z" fill="#231F20"/>
<path d="M158.75 28.8096C160.12 28.8096 161.23 27.6993 161.23 26.3296C161.23 24.9599 160.12 23.8496 158.75 23.8496C157.38 23.8496 156.27 24.9599 156.27 26.3296C156.27 27.6993 157.38 28.8096 158.75 28.8096Z" fill="#333132"/>
<path d="M160.45 33.4002C161.61 33.4002 162.55 32.46 162.55 31.3002C162.55 30.1404 161.61 29.2002 160.45 29.2002C159.29 29.2002 158.35 30.1404 158.35 31.3002C158.35 32.46 159.29 33.4002 160.45 33.4002Z" fill="#474342"/>
<path d="M159.3 37.4703C160.25 37.4703 161.02 36.7002 161.02 35.7503C161.02 34.8003 160.25 34.0303 159.3 34.0303C158.35 34.0303 157.58 34.8003 157.58 35.7503C157.58 36.7002 158.35 37.4703 159.3 37.4703Z" fill="#545456"/>
<path d="M157.24 39.8304C157.98 39.8304 158.58 39.2305 158.58 38.4904C158.58 37.7503 157.98 37.1504 157.24 37.1504C156.5 37.1504 155.9 37.7503 155.9 38.4904C155.9 39.2305 156.5 39.8304 157.24 39.8304Z" fill="#625C5A"/>
<path d="M17.6797 65.1504L158.94 65.1604" stroke="#231F20" stroke-width="1.12" stroke-miterlimit="10"/>
</g>
<defs>
<clipPath id="clip0_65_95">
<rect width="184.5" height="80.67" fill="white"/>
</clipPath>
</defs>
</svg>
